<svg width="25" height="25" viewBox="0 0 25 25" fill="none" xmlns="http://www.w3.org/2000/svg">
<path d="M21.4749 15.5078V18.5078H24.4749V20.5078H21.4749V23.5078H19.4749V20.5078H16.4749V18.5078H19.4749V15.5078H21.4749ZM21.4829 3.50781C22.0309 3.50781 22.4749 3.95281 22.4749 4.50081V13.8498C21.8325 13.6229 21.1561 13.5072 20.4749 13.5078V5.50781H4.47485L4.47585 19.5078L13.7679 10.2148C13.9398 10.0423 14.1689 9.93854 14.412 9.92307C14.6551 9.90761 14.8954 9.98148 15.0879 10.1308L15.1809 10.2158L18.7269 13.7658C17.9515 14.0021 17.232 14.3929 16.6118 14.9148C15.9916 15.4366 15.4835 16.0787 15.1181 16.8022C14.7527 17.5258 14.5377 18.3158 14.4859 19.1247C14.4341 19.9336 14.5467 20.7446 14.8169 21.5088L3.46685 21.5078C3.20367 21.5075 2.95135 21.4028 2.76534 21.2166C2.57934 21.0304 2.47485 20.778 2.47485 20.5148V4.50081C2.47668 4.23819 2.58175 3.98683 2.76737 3.80103C2.95298 3.61523 3.20423 3.50991 3.46685 3.50781H21.4829ZM8.47485 7.50781C9.00529 7.50781 9.51399 7.71853 9.88907 8.0936C10.2641 8.46867 10.4749 8.97738 10.4749 9.50781C10.4749 10.0382 10.2641 10.547 9.88907 10.922C9.51399 11.2971 9.00529 11.5078 8.47485 11.5078C7.94442 11.5078 7.43571 11.2971 7.06064 10.922C6.68557 10.547 6.47485 10.0382 6.47485 9.50781C6.47485 8.97738 6.68557 8.46867 7.06064 8.0936C7.43571 7.71853 7.94442 7.50781 8.47485 7.50781Z" fill="#BAB3FF"/>
</svg>
