<svg width="25" height="25" viewBox="0 0 25 25" fill="none" xmlns="http://www.w3.org/2000/svg">
<path d="M9.30688 13.6321C9.30688 13.8546 9.2409 14.0721 9.11729 14.2571C8.99367 14.4421 8.81797 14.5863 8.6124 14.6715C8.40684 14.7566 8.18064 14.7789 7.96241 14.7355C7.74418 14.6921 7.54372 14.5849 7.38639 14.4276C7.22906 14.2703 7.12191 14.0698 7.0785 13.8516C7.03509 13.6334 7.05737 13.4072 7.14252 13.2016C7.22767 12.996 7.37186 12.8203 7.55687 12.6967C7.74187 12.5731 7.95938 12.5071 8.18188 12.5071C8.48025 12.5071 8.7664 12.6256 8.97738 12.8366C9.18836 13.0476 9.30688 13.3337 9.30688 13.6321ZM16.4319 12.5071C16.2094 12.5071 15.9919 12.5731 15.8069 12.6967C15.6219 12.8203 15.4777 12.996 15.3925 13.2016C15.3074 13.4072 15.2851 13.6334 15.3285 13.8516C15.3719 14.0698 15.4791 14.2703 15.6364 14.4276C15.7937 14.5849 15.9942 14.6921 16.2124 14.7355C16.4306 14.7789 16.6568 14.7566 16.8624 14.6715C17.068 14.5863 17.2437 14.4421 17.3673 14.2571C17.4909 14.0721 17.5569 13.8546 17.5569 13.6321C17.5569 13.3337 17.4384 13.0476 17.2274 12.8366C17.0164 12.6256 16.7303 12.5071 16.4319 12.5071ZM22.0569 5.00712V13.2571C22.0569 18.2193 17.6834 22.2571 12.3069 22.2571C6.93032 22.2571 2.55688 18.2193 2.55688 13.2571V5.00712C2.55702 4.71055 2.64507 4.42067 2.8099 4.17413C2.97473 3.92758 3.20895 3.73543 3.48295 3.62195C3.75696 3.50848 4.05845 3.47878 4.34933 3.5366C4.64021 3.59442 4.90742 3.73717 5.1172 3.94681C5.13032 3.95993 5.14157 3.97212 5.15282 3.98524L6.77563 5.85087C8.43495 4.81126 10.3535 4.25989 12.3116 4.25989C14.2697 4.25989 16.1882 4.81126 17.8475 5.85087L19.4609 3.98524C19.4722 3.97212 19.4834 3.95993 19.4966 3.94681C19.7063 3.73717 19.9736 3.59442 20.2644 3.5366C20.5553 3.47878 20.8568 3.50848 21.1308 3.62195C21.4048 3.73543 21.639 3.92758 21.8039 4.17413C21.9687 4.42067 22.0567 4.71055 22.0569 5.00712ZM20.5569 5.00712L18.5356 7.33212C18.412 7.47516 18.2389 7.56622 18.051 7.58708C17.8631 7.60794 17.6742 7.55706 17.5222 7.44462C17.0647 7.10627 16.5737 6.81569 16.0569 6.57743V8.75712C16.0569 8.95603 15.9779 9.1468 15.8372 9.28745C15.6966 9.4281 15.5058 9.50712 15.3069 9.50712C15.108 9.50712 14.9172 9.4281 14.7766 9.28745C14.6359 9.1468 14.5569 8.95603 14.5569 8.75712V6.04306C14.0648 5.91649 13.5631 5.83119 13.0569 5.78806V8.75712C13.0569 8.95603 12.9779 9.1468 12.8372 9.28745C12.6966 9.4281 12.5058 9.50712 12.3069 9.50712C12.108 9.50712 11.9172 9.4281 11.7766 9.28745C11.6359 9.1468 11.5569 8.95603 11.5569 8.75712V5.78806C11.0507 5.83119 10.5489 5.91649 10.0569 6.04306V8.75712C10.0569 8.95603 9.97787 9.1468 9.83721 9.28745C9.69656 9.4281 9.5058 9.50712 9.30688 9.50712C9.10797 9.50712 8.91721 9.4281 8.77656 9.28745C8.6359 9.1468 8.55688 8.95603 8.55688 8.75712V6.57743C8.04011 6.81569 7.54911 7.10627 7.09157 7.44462C6.93991 7.55739 6.75126 7.60874 6.56335 7.58841C6.37545 7.56807 6.20216 7.47754 6.07814 7.33493L4.05688 5.00712V13.2571C4.05688 17.1627 7.35782 20.3821 11.5569 20.7262V18.8174L10.2763 17.5368C10.2066 17.4671 10.1514 17.3844 10.1138 17.2934C10.0761 17.2024 10.0568 17.1048 10.0568 17.0063C10.0568 16.9078 10.0763 16.8103 10.114 16.7193C10.1518 16.6283 10.207 16.5456 10.2767 16.476C10.4175 16.3354 10.6083 16.2565 10.8072 16.2566C10.9057 16.2566 11.0032 16.2761 11.0942 16.3138C11.1852 16.3515 11.2679 16.4068 11.3375 16.4765L12.3069 17.4459L13.2763 16.4765C13.3459 16.4068 13.4285 16.3515 13.5195 16.3138C13.6105 16.2761 13.708 16.2566 13.8066 16.2566C13.9051 16.2565 14.0026 16.2759 14.0936 16.3135C14.1846 16.3512 14.2674 16.4064 14.337 16.476C14.4067 16.5456 14.462 16.6283 14.4997 16.7193C14.5375 16.8103 14.5569 16.9078 14.557 17.0063C14.557 17.1048 14.5377 17.2024 14.5 17.2934C14.4623 17.3844 14.4071 17.4671 14.3375 17.5368L13.0569 18.8174V20.7262C17.2559 20.3802 20.5569 17.1637 20.5569 13.2571V5.00712Z" fill="#BAB3FF"/>
</svg>
