<svg width="25" height="25" viewBox="0 0 25 25" fill="none" xmlns="http://www.w3.org/2000/svg">
<path d="M22.8636 12.232L21.3242 3.98203C21.2866 3.78093 21.2082 3.58965 21.0939 3.41996C20.9797 3.25026 20.8319 3.10574 20.6597 2.99527C20.4875 2.8848 20.2945 2.81073 20.0926 2.77761C19.8907 2.74448 19.6842 2.753 19.4857 2.80265L19.4567 2.81109L14.5329 4.26328H10.2486L5.32481 2.81577L5.29575 2.80734C5.09728 2.75769 4.89075 2.74917 4.68887 2.78229C4.48698 2.81542 4.29401 2.88949 4.12181 2.99996C3.94961 3.11043 3.80183 3.25495 3.68755 3.42464C3.57328 3.59434 3.49492 3.78562 3.45731 3.98671L1.91794 12.232C1.85211 12.5622 1.90097 12.905 2.05644 13.2037C2.21192 13.5024 2.46468 13.739 2.77294 13.8745C2.97034 13.9651 3.18482 14.0124 3.402 14.0133C3.66194 14.0132 3.91708 13.9432 4.14075 13.8108V17.7633C4.14075 18.7578 4.53584 19.7117 5.2391 20.4149C5.94236 21.1182 6.89619 21.5133 7.89075 21.5133H16.8907C17.8853 21.5133 18.8391 21.1182 19.5424 20.4149C20.2457 19.7117 20.6407 18.7578 20.6407 17.7633V13.8117C20.8642 13.9439 21.1189 14.0138 21.3786 14.0142C21.596 14.0136 21.8107 13.9666 22.0086 13.8764C22.3172 13.7408 22.5702 13.5039 22.7257 13.2048C22.8812 12.9058 22.9299 12.5625 22.8636 12.232ZM3.39075 12.5133L4.93106 4.26328L8.87512 5.42296L3.39075 12.5133ZM16.8907 20.0133H13.1407V18.8236L14.4214 17.5439C14.5621 17.4032 14.6412 17.2123 14.6412 17.0133C14.6412 16.8143 14.5621 16.6234 14.4214 16.4827C14.2806 16.3419 14.0898 16.2629 13.8907 16.2629C13.6917 16.2629 13.5009 16.3419 13.3601 16.4827L12.3907 17.453L11.4214 16.4827C11.2806 16.3419 11.0898 16.2629 10.8907 16.2629C10.6917 16.2629 10.5009 16.3419 10.3601 16.4827C10.2194 16.6234 10.1403 16.8143 10.1403 17.0133C10.1403 17.2123 10.2194 17.4032 10.3601 17.5439L11.6407 18.8236V20.0133H7.89075C7.29401 20.0133 6.72171 19.7762 6.29976 19.3543C5.8778 18.9323 5.64075 18.36 5.64075 17.7633V12.0548L10.5082 5.76328H14.2723L19.1407 12.0548V17.7633C19.1407 18.36 18.9037 18.9323 18.4817 19.3543C18.0598 19.7762 17.4875 20.0133 16.8907 20.0133ZM21.3907 12.5133L15.9064 5.42296L19.8504 4.26328L21.3907 12.5133ZM10.1407 13.6383C10.1407 13.8608 10.0748 14.0783 9.95115 14.2633C9.82753 14.4483 9.65183 14.5925 9.44627 14.6776C9.2407 14.7628 9.0145 14.7851 8.79627 14.7417C8.57804 14.6983 8.37759 14.5911 8.22025 14.4338C8.06292 14.2764 7.95577 14.076 7.91236 13.8578C7.86896 13.6395 7.89123 13.4133 7.97638 13.2078C8.06153 13.0022 8.20573 12.8265 8.39073 12.7029C8.57574 12.5793 8.79324 12.5133 9.01575 12.5133C9.31412 12.5133 9.60026 12.6318 9.81124 12.8428C10.0222 13.0538 10.1407 13.3399 10.1407 13.6383ZM16.8907 13.6383C16.8907 13.8608 16.8248 14.0783 16.7012 14.2633C16.5775 14.4483 16.4018 14.5925 16.1963 14.6776C15.9907 14.7628 15.7645 14.7851 15.5463 14.7417C15.328 14.6983 15.1276 14.5911 14.9703 14.4338C14.8129 14.2764 14.7058 14.076 14.6624 13.8578C14.619 13.6395 14.6412 13.4133 14.7264 13.2078C14.8115 13.0022 14.9557 12.8265 15.1407 12.7029C15.3257 12.5793 15.5432 12.5133 15.7657 12.5133C16.0641 12.5133 16.3503 12.6318 16.5612 12.8428C16.7722 13.0538 16.8907 13.3399 16.8907 13.6383Z" fill="#BAB3FF"/>
</svg>
