<svg width="24" height="24" viewBox="0 0 24 24" fill="none" xmlns="http://www.w3.org/2000/svg">
<path d="M18.5051 19H20C21.1046 19 22.0669 18.076 21.716 17.0286C21.1812 15.4325 19.8656 14.4672 17.5527 14.1329M14.5001 10.8645C14.7911 10.9565 15.1244 11 15.5 11C17.1667 11 18 10.1429 18 8C18 5.85714 17.1667 5 15.5 5C15.1244 5 14.7911 5.04354 14.5001 5.13552M9.5 14C13.1135 14 15.0395 15.0095 15.716 17.0286C16.0669 18.076 15.1046 19 14 19H5C3.89543 19 2.93311 18.076 3.28401 17.0286C3.96047 15.0095 5.88655 14 9.5 14ZM9.5 11C11.1667 11 12 10.1429 12 8C12 5.85714 11.1667 5 9.5 5C7.83333 5 7 5.85714 7 8C7 10.1429 7.83333 11 9.5 11Z" stroke="white" stroke-width="2" stroke-linecap="round" stroke-linejoin="round"/>
</svg>
