<svg width="197" height="180" viewBox="0 0 197 180" fill="none" xmlns="http://www.w3.org/2000/svg">
<g filter="url(#filter0_d_507_13029)">
<rect x="11.874" y="11.7734" width="173.916" height="156.452" rx="5.57423" fill="white"/>
</g>
<path d="M100.307 92.6321C100.307 92.8546 100.241 93.0721 100.117 93.2571C99.9937 93.4421 99.818 93.5863 99.6124 93.6715C99.4068 93.7566 99.1806 93.7789 98.9624 93.7355C98.7442 93.6921 98.5437 93.5849 98.3864 93.4276C98.2291 93.2703 98.1219 93.0698 98.0785 92.8516C98.0351 92.6334 98.0574 92.4072 98.1425 92.2016C98.2277 91.996 98.3719 91.8203 98.5569 91.6967C98.7419 91.5731 98.9594 91.5071 99.1819 91.5071C99.4803 91.5071 99.7664 91.6256 99.9774 91.8366C100.188 92.0476 100.307 92.3337 100.307 92.6321ZM107.432 91.5071C107.209 91.5071 106.992 91.5731 106.807 91.6967C106.622 91.8203 106.478 91.996 106.393 92.2016C106.307 92.4072 106.285 92.6334 106.329 92.8516C106.372 93.0698 106.479 93.2703 106.636 93.4276C106.794 93.5849 106.994 93.6921 107.212 93.7355C107.431 93.7789 107.657 93.7566 107.862 93.6715C108.068 93.5863 108.244 93.4421 108.367 93.2571C108.491 93.0721 108.557 92.8546 108.557 92.6321C108.557 92.3337 108.438 92.0476 108.227 91.8366C108.016 91.6256 107.73 91.5071 107.432 91.5071ZM113.057 84.0071V92.2571C113.057 97.2193 108.683 101.257 103.307 101.257C97.9303 101.257 93.5569 97.2193 93.5569 92.2571V84.0071C93.557 83.7105 93.6451 83.4207 93.8099 83.1741C93.9747 82.9276 94.209 82.7354 94.483 82.622C94.757 82.5085 95.0584 82.4788 95.3493 82.5366C95.6402 82.5944 95.9074 82.7372 96.1172 82.9468C96.1303 82.9599 96.1416 82.9721 96.1528 82.9852L97.7756 84.8509C99.435 83.8113 101.353 83.2599 103.312 83.2599C105.27 83.2599 107.188 83.8113 108.848 84.8509L110.461 82.9852C110.472 82.9721 110.483 82.9599 110.497 82.9468C110.706 82.7372 110.974 82.5944 111.264 82.5366C111.555 82.4788 111.857 82.5085 112.131 82.622C112.405 82.7354 112.639 82.9276 112.804 83.1741C112.969 83.4207 113.057 83.7105 113.057 84.0071ZM111.557 84.0071L109.536 86.3321C109.412 86.4752 109.239 86.5662 109.051 86.5871C108.863 86.6079 108.674 86.5571 108.522 86.4446C108.065 86.1063 107.574 85.8157 107.057 85.5774V87.7571C107.057 87.956 106.978 88.1468 106.837 88.2874C106.697 88.4281 106.506 88.5071 106.307 88.5071C106.108 88.5071 105.917 88.4281 105.777 88.2874C105.636 88.1468 105.557 87.956 105.557 87.7571V85.0431C105.065 84.9165 104.563 84.8312 104.057 84.7881V87.7571C104.057 87.956 103.978 88.1468 103.837 88.2874C103.697 88.4281 103.506 88.5071 103.307 88.5071C103.108 88.5071 102.917 88.4281 102.777 88.2874C102.636 88.1468 102.557 87.956 102.557 87.7571V84.7881C102.051 84.8312 101.549 84.9165 101.057 85.0431V87.7571C101.057 87.956 100.978 88.1468 100.837 88.2874C100.697 88.4281 100.506 88.5071 100.307 88.5071C100.108 88.5071 99.9172 88.4281 99.7766 88.2874C99.6359 88.1468 99.5569 87.956 99.5569 87.7571V85.5774C99.0401 85.8157 98.5491 86.1063 98.0916 86.4446C97.9399 86.5574 97.7513 86.6087 97.5634 86.5884C97.3755 86.5681 97.2022 86.4775 97.0781 86.3349L95.0569 84.0071V92.2571C95.0569 96.1627 98.3578 99.3821 102.557 99.7262V97.8174L101.276 96.5368C101.207 96.4671 101.151 96.3844 101.114 96.2934C101.076 96.2024 101.057 96.1048 101.057 96.0063C101.057 95.9078 101.076 95.8103 101.114 95.7193C101.152 95.6283 101.207 95.5456 101.277 95.476C101.417 95.3354 101.608 95.2565 101.807 95.2566C101.906 95.2566 102.003 95.2761 102.094 95.3138C102.185 95.3515 102.268 95.4068 102.338 95.4765L103.307 96.4459L104.276 95.4765C104.346 95.4068 104.429 95.3515 104.52 95.3138C104.611 95.2761 104.708 95.2566 104.807 95.2566C104.905 95.2565 105.003 95.2759 105.094 95.3135C105.185 95.3512 105.267 95.4064 105.337 95.476C105.407 95.5456 105.462 95.6283 105.5 95.7193C105.537 95.8103 105.557 95.9078 105.557 96.0063C105.557 96.1048 105.538 96.2024 105.5 96.2934C105.462 96.3844 105.407 96.4671 105.338 96.5368L104.057 97.8174V99.7262C108.256 99.3802 111.557 96.1637 111.557 92.2571V84.0071Z" fill="#BAB3FF"/>
<defs>
<filter id="filter0_d_507_13029" x="0.725565" y="0.624979" width="196.213" height="178.75" filterUnits="userSpaceOnUse" color-interpolation-filters="sRGB">
<feFlood flood-opacity="0" result="BackgroundImageFix"/>
<feColorMatrix in="SourceAlpha" type="matrix" values="0 0 0 0 0 0 0 0 0 0 0 0 0 0 0 0 0 0 127 0" result="hardAlpha"/>
<feOffset/>
<feGaussianBlur stdDeviation="5.57423"/>
<feComposite in2="hardAlpha" operator="out"/>
<feColorMatrix type="matrix" values="0 0 0 0 0 0 0 0 0 0 0 0 0 0 0 0 0 0 0.1 0"/>
<feBlend mode="normal" in2="BackgroundImageFix" result="effect1_dropShadow_507_13029"/>
<feBlend mode="normal" in="SourceGraphic" in2="effect1_dropShadow_507_13029" result="shape"/>
</filter>
</defs>
</svg>
