<svg width="198" height="180" viewBox="0 0 198 180" fill="none" xmlns="http://www.w3.org/2000/svg">
<g filter="url(#filter0_d_507_13013)">
<rect x="11.958" y="11.7734" width="173.916" height="156.452" rx="5.57423" fill="white"/>
</g>
<path d="M113.864 91.232L112.324 82.982C112.287 82.7809 112.208 82.5897 112.094 82.42C111.98 82.2503 111.832 82.1057 111.66 81.9953C111.487 81.8848 111.295 81.8107 111.093 81.7776C110.891 81.7445 110.684 81.753 110.486 81.8027L110.457 81.8111L105.533 83.2633H101.249L96.3248 81.8158L96.2957 81.8073C96.0973 81.7577 95.8908 81.7492 95.6889 81.7823C95.487 81.8154 95.294 81.8895 95.1218 82C94.9496 82.1104 94.8018 82.2549 94.6876 82.4246C94.5733 82.5943 94.4949 82.7856 94.4573 82.9867L92.9179 91.232C92.8521 91.5622 92.901 91.905 93.0564 92.2037C93.2119 92.5024 93.4647 92.739 93.7729 92.8745C93.9703 92.9651 94.1848 93.0124 94.402 93.0133C94.6619 93.0132 94.9171 92.9432 95.1407 92.8108V96.7633C95.1407 97.7578 95.5358 98.7117 96.2391 99.4149C96.9424 100.118 97.8962 100.513 98.8907 100.513H107.891C108.885 100.513 109.839 100.118 110.542 99.4149C111.246 98.7117 111.641 97.7578 111.641 96.7633V92.8117C111.864 92.9439 112.119 93.0138 112.379 93.0142C112.596 93.0136 112.811 92.9666 113.009 92.8764C113.317 92.7408 113.57 92.5039 113.726 92.2048C113.881 91.9058 113.93 91.5625 113.864 91.232ZM94.3907 91.5133L95.9311 83.2633L99.8751 84.423L94.3907 91.5133ZM107.891 99.0133H104.141V97.8236L105.421 96.5439C105.562 96.4032 105.641 96.2123 105.641 96.0133C105.641 95.8143 105.562 95.6234 105.421 95.4827C105.281 95.3419 105.09 95.2629 104.891 95.2629C104.692 95.2629 104.501 95.3419 104.36 95.4827L103.391 96.453L102.421 95.4827C102.281 95.3419 102.09 95.2629 101.891 95.2629C101.692 95.2629 101.501 95.3419 101.36 95.4827C101.219 95.6234 101.14 95.8143 101.14 96.0133C101.14 96.2123 101.219 96.4032 101.36 96.5439L102.641 97.8236V99.0133H98.8907C98.294 99.0133 97.7217 98.7762 97.2998 98.3543C96.8778 97.9323 96.6407 97.36 96.6407 96.7633V91.0548L101.508 84.7633H105.272L110.141 91.0548V96.7633C110.141 97.36 109.904 97.9323 109.482 98.3543C109.06 98.7762 108.487 99.0133 107.891 99.0133ZM112.391 91.5133L106.906 84.423L110.85 83.2633L112.391 91.5133ZM101.141 92.6383C101.141 92.8608 101.075 93.0783 100.951 93.2633C100.828 93.4483 100.652 93.5925 100.446 93.6776C100.241 93.7628 100.014 93.7851 99.7963 93.7417C99.578 93.6983 99.3776 93.5911 99.2203 93.4338C99.0629 93.2764 98.9558 93.076 98.9124 92.8578C98.869 92.6395 98.8912 92.4133 98.9764 92.2078C99.0615 92.0022 99.2057 91.8265 99.3907 91.7029C99.5757 91.5793 99.7932 91.5133 100.016 91.5133C100.314 91.5133 100.6 91.6318 100.811 91.8428C101.022 92.0538 101.141 92.3399 101.141 92.6383ZM107.891 92.6383C107.891 92.8608 107.825 93.0783 107.701 93.2633C107.578 93.4483 107.402 93.5925 107.196 93.6776C106.991 93.7628 106.764 93.7851 106.546 93.7417C106.328 93.6983 106.128 93.5911 105.97 93.4338C105.813 93.2764 105.706 93.076 105.662 92.8578C105.619 92.6395 105.641 92.4133 105.726 92.2078C105.812 92.0022 105.956 91.8265 106.141 91.7029C106.326 91.5793 106.543 91.5133 106.766 91.5133C107.064 91.5133 107.35 91.6318 107.561 91.8428C107.772 92.0538 107.891 92.3399 107.891 92.6383Z" fill="#BAB3FF"/>
<defs>
<filter id="filter0_d_507_13013" x="0.809549" y="0.624979" width="196.213" height="178.75" filterUnits="userSpaceOnUse" color-interpolation-filters="sRGB">
<feFlood flood-opacity="0" result="BackgroundImageFix"/>
<feColorMatrix in="SourceAlpha" type="matrix" values="0 0 0 0 0 0 0 0 0 0 0 0 0 0 0 0 0 0 127 0" result="hardAlpha"/>
<feOffset/>
<feGaussianBlur stdDeviation="5.57423"/>
<feComposite in2="hardAlpha" operator="out"/>
<feColorMatrix type="matrix" values="0 0 0 0 0 0 0 0 0 0 0 0 0 0 0 0 0 0 0.1 0"/>
<feBlend mode="normal" in2="BackgroundImageFix" result="effect1_dropShadow_507_13013"/>
<feBlend mode="normal" in="SourceGraphic" in2="effect1_dropShadow_507_13013" result="shape"/>
</filter>
</defs>
</svg>
