<svg width="198" height="180" viewBox="0 0 198 180" fill="none" xmlns="http://www.w3.org/2000/svg">
<g filter="url(#filter0_d_507_13021)">
<rect x="12.126" y="11.7734" width="173.916" height="156.452" rx="5.57423" fill="white"/>
</g>
<path d="M112.559 94.5078V97.5078H115.559V99.5078H112.559V102.508H110.559V99.5078H107.559V97.5078H110.559V94.5078H112.559ZM112.567 82.5078C113.115 82.5078 113.559 82.9528 113.559 83.5008V92.8498C112.916 92.6229 112.24 92.5072 111.559 92.5078V84.5078H95.5588L95.5598 98.5078L104.852 89.2148C105.024 89.0423 105.253 88.9385 105.496 88.9231C105.739 88.9076 105.979 88.9815 106.172 89.1308L106.265 89.2158L109.811 92.7658C109.035 93.0021 108.316 93.3929 107.696 93.9148C107.076 94.4366 106.567 95.0787 106.202 95.8022C105.837 96.5258 105.622 97.3158 105.57 98.1247C105.518 98.9336 105.631 99.7446 105.901 100.509L94.5508 100.508C94.2877 100.508 94.0353 100.403 93.8493 100.217C93.6633 100.03 93.5588 99.778 93.5588 99.5148V83.5008C93.5607 83.2382 93.6657 82.9868 93.8514 82.801C94.037 82.6152 94.2882 82.5099 94.5508 82.5078H112.567ZM99.5588 86.5078C100.089 86.5078 100.598 86.7185 100.973 87.0936C101.348 87.4687 101.559 87.9774 101.559 88.5078C101.559 89.0382 101.348 89.547 100.973 89.922C100.598 90.2971 100.089 90.5078 99.5588 90.5078C99.0284 90.5078 98.5197 90.2971 98.1446 89.922C97.7696 89.547 97.5588 89.0382 97.5588 88.5078C97.5588 87.9774 97.7696 87.4687 98.1446 87.0936C98.5197 86.7185 99.0284 86.5078 99.5588 86.5078Z" fill="#BAB3FF"/>
<defs>
<filter id="filter0_d_507_13021" x="0.977518" y="0.624979" width="196.213" height="178.75" filterUnits="userSpaceOnUse" color-interpolation-filters="sRGB">
<feFlood flood-opacity="0" result="BackgroundImageFix"/>
<feColorMatrix in="SourceAlpha" type="matrix" values="0 0 0 0 0 0 0 0 0 0 0 0 0 0 0 0 0 0 127 0" result="hardAlpha"/>
<feOffset/>
<feGaussianBlur stdDeviation="5.57423"/>
<feComposite in2="hardAlpha" operator="out"/>
<feColorMatrix type="matrix" values="0 0 0 0 0 0 0 0 0 0 0 0 0 0 0 0 0 0 0.1 0"/>
<feBlend mode="normal" in2="BackgroundImageFix" result="effect1_dropShadow_507_13021"/>
<feBlend mode="normal" in="SourceGraphic" in2="effect1_dropShadow_507_13021" result="shape"/>
</filter>
</defs>
</svg>
